<mxfile host="app.diagrams.net" agent="Mozilla/5.0 (Macintosh; Intel Mac OS X 10_15_7) AppleWebKit/537.36 (KHTML, like Gecko) Chrome/134.0.0.0 Safari/537.36 Edg/134.0.0.0" version="26.1.1">
  <diagram name="第 1 页" id="-JhWn3O2yWtf-PAiQyTx">
    <mxGraphModel dx="651" dy="385" grid="1" gridSize="10" guides="1" tooltips="1" connect="1" arrows="1" fold="1" page="1" pageScale="1" pageWidth="827" pageHeight="1169" math="0" shadow="0">
      <root>
        <mxCell id="0" />
        <mxCell id="1" parent="0" />
        <mxCell id="xNINmM9kppurYQLskDPg-37" value="" style="rounded=0;whiteSpace=wrap;html=1;fillColor=#d5e8d4;strokeColor=#82b366;" vertex="1" parent="1">
          <mxGeometry x="340" y="110" width="220" height="210" as="geometry" />
        </mxCell>
        <mxCell id="xNINmM9kppurYQLskDPg-36" value="" style="rounded=0;whiteSpace=wrap;html=1;fillColor=#ffe6cc;strokeColor=#d79b00;" vertex="1" parent="1">
          <mxGeometry x="100" y="110" width="220" height="210" as="geometry" />
        </mxCell>
        <mxCell id="xNINmM9kppurYQLskDPg-1" value="&lt;font face=&quot;Times New Roman&quot;&gt;Idle&lt;/font&gt;" style="ellipse;whiteSpace=wrap;html=1;aspect=fixed;" vertex="1" parent="1">
          <mxGeometry x="110" y="180" width="60" height="60" as="geometry" />
        </mxCell>
        <mxCell id="xNINmM9kppurYQLskDPg-2" value="&lt;font face=&quot;Times New Roman&quot;&gt;OnRecv&lt;/font&gt;" style="ellipse;whiteSpace=wrap;html=1;aspect=fixed;" vertex="1" parent="1">
          <mxGeometry x="200" y="120" width="60" height="60" as="geometry" />
        </mxCell>
        <mxCell id="xNINmM9kppurYQLskDPg-3" value="&lt;font face=&quot;Times New Roman&quot;&gt;OnSend&lt;/font&gt;" style="ellipse;whiteSpace=wrap;html=1;aspect=fixed;" vertex="1" parent="1">
          <mxGeometry x="200" y="240" width="60" height="60" as="geometry" />
        </mxCell>
        <mxCell id="xNINmM9kppurYQLskDPg-4" value="&lt;font face=&quot;Times New Roman&quot;&gt;Idle&lt;/font&gt;" style="ellipse;whiteSpace=wrap;html=1;aspect=fixed;" vertex="1" parent="1">
          <mxGeometry x="480" y="180" width="60" height="60" as="geometry" />
        </mxCell>
        <mxCell id="xNINmM9kppurYQLskDPg-5" value="&lt;font face=&quot;Times New Roman&quot;&gt;OnRecv&lt;/font&gt;" style="ellipse;whiteSpace=wrap;html=1;aspect=fixed;" vertex="1" parent="1">
          <mxGeometry x="390" y="120" width="60" height="60" as="geometry" />
        </mxCell>
        <mxCell id="xNINmM9kppurYQLskDPg-6" value="&lt;font face=&quot;Times New Roman&quot;&gt;OnSignal&lt;/font&gt;" style="ellipse;whiteSpace=wrap;html=1;aspect=fixed;" vertex="1" parent="1">
          <mxGeometry x="390" y="240" width="60" height="60" as="geometry" />
        </mxCell>
        <mxCell id="xNINmM9kppurYQLskDPg-7" value="" style="endArrow=classic;html=1;rounded=0;exitX=0.929;exitY=0.239;exitDx=0;exitDy=0;exitPerimeter=0;" edge="1" parent="1" source="xNINmM9kppurYQLskDPg-1" target="xNINmM9kppurYQLskDPg-2">
          <mxGeometry width="50" height="50" relative="1" as="geometry">
            <mxPoint x="161" y="189" as="sourcePoint" />
            <mxPoint x="110" y="290" as="targetPoint" />
          </mxGeometry>
        </mxCell>
        <mxCell id="xNINmM9kppurYQLskDPg-8" value="" style="endArrow=classic;html=1;rounded=0;entryX=-0.012;entryY=0.44;entryDx=0;entryDy=0;exitX=0.712;exitY=0.952;exitDx=0;exitDy=0;entryPerimeter=0;exitPerimeter=0;" edge="1" parent="1" source="xNINmM9kppurYQLskDPg-1" target="xNINmM9kppurYQLskDPg-3">
          <mxGeometry width="50" height="50" relative="1" as="geometry">
            <mxPoint x="140" y="240" as="sourcePoint" />
            <mxPoint x="150" y="300" as="targetPoint" />
          </mxGeometry>
        </mxCell>
        <mxCell id="xNINmM9kppurYQLskDPg-9" value="&lt;font face=&quot;Times New Roman&quot;&gt;Recv &amp;amp; queue empty&lt;/font&gt;" style="text;html=1;align=center;verticalAlign=middle;whiteSpace=wrap;rounded=0;" vertex="1" parent="1">
          <mxGeometry x="175" y="210" width="70" height="30" as="geometry" />
        </mxCell>
        <mxCell id="xNINmM9kppurYQLskDPg-10" value="&lt;font face=&quot;Times New Roman&quot;&gt;Send&lt;/font&gt;" style="text;html=1;align=center;verticalAlign=middle;whiteSpace=wrap;rounded=0;" vertex="1" parent="1">
          <mxGeometry x="130" y="255" width="60" height="30" as="geometry" />
        </mxCell>
        <mxCell id="xNINmM9kppurYQLskDPg-12" value="" style="curved=1;endArrow=classic;html=1;rounded=0;exitX=1;exitY=1;exitDx=0;exitDy=0;entryX=1;entryY=0;entryDx=0;entryDy=0;" edge="1" parent="1" source="xNINmM9kppurYQLskDPg-3" target="xNINmM9kppurYQLskDPg-3">
          <mxGeometry width="50" height="50" relative="1" as="geometry">
            <mxPoint x="320" y="280" as="sourcePoint" />
            <mxPoint x="370" y="230" as="targetPoint" />
            <Array as="points">
              <mxPoint x="290" y="300" />
              <mxPoint x="300" y="249" />
            </Array>
          </mxGeometry>
        </mxCell>
        <mxCell id="xNINmM9kppurYQLskDPg-14" value="" style="curved=1;endArrow=classic;html=1;rounded=0;exitX=1;exitY=1;exitDx=0;exitDy=0;entryX=1;entryY=0;entryDx=0;entryDy=0;" edge="1" parent="1" source="xNINmM9kppurYQLskDPg-2" target="xNINmM9kppurYQLskDPg-2">
          <mxGeometry width="50" height="50" relative="1" as="geometry">
            <mxPoint x="261" y="171" as="sourcePoint" />
            <mxPoint x="261" y="129" as="targetPoint" />
            <Array as="points">
              <mxPoint x="300" y="171" />
              <mxPoint x="290" y="130" />
            </Array>
          </mxGeometry>
        </mxCell>
        <mxCell id="xNINmM9kppurYQLskDPg-16" value="&lt;font face=&quot;Times New Roman&quot;&gt;Send&lt;/font&gt;" style="text;html=1;align=center;verticalAlign=middle;whiteSpace=wrap;rounded=0;" vertex="1" parent="1">
          <mxGeometry x="260" y="290" width="60" height="30" as="geometry" />
        </mxCell>
        <mxCell id="xNINmM9kppurYQLskDPg-17" value="&lt;font face=&quot;Times New Roman&quot;&gt;Recv&lt;/font&gt;" style="text;html=1;align=center;verticalAlign=middle;whiteSpace=wrap;rounded=0;" vertex="1" parent="1">
          <mxGeometry x="270" y="110" width="60" height="30" as="geometry" />
        </mxCell>
        <mxCell id="xNINmM9kppurYQLskDPg-18" value="" style="endArrow=classic;html=1;rounded=0;exitX=0;exitY=0;exitDx=0;exitDy=0;entryX=0.976;entryY=0.727;entryDx=0;entryDy=0;entryPerimeter=0;" edge="1" parent="1" source="xNINmM9kppurYQLskDPg-3" target="xNINmM9kppurYQLskDPg-1">
          <mxGeometry width="50" height="50" relative="1" as="geometry">
            <mxPoint x="171" y="241" as="sourcePoint" />
            <mxPoint x="170" y="220" as="targetPoint" />
          </mxGeometry>
        </mxCell>
        <mxCell id="xNINmM9kppurYQLskDPg-19" value="&lt;font face=&quot;Times New Roman&quot;&gt;Send &amp;amp; queue empty&lt;/font&gt;" style="text;html=1;align=center;verticalAlign=middle;whiteSpace=wrap;rounded=0;" vertex="1" parent="1">
          <mxGeometry x="125" y="135" width="70" height="30" as="geometry" />
        </mxCell>
        <mxCell id="xNINmM9kppurYQLskDPg-20" value="" style="endArrow=classic;html=1;rounded=0;exitX=-0.043;exitY=0.557;exitDx=0;exitDy=0;exitPerimeter=0;entryX=0.743;entryY=0.014;entryDx=0;entryDy=0;entryPerimeter=0;" edge="1" parent="1" source="xNINmM9kppurYQLskDPg-2" target="xNINmM9kppurYQLskDPg-1">
          <mxGeometry width="50" height="50" relative="1" as="geometry">
            <mxPoint x="171" y="199" as="sourcePoint" />
            <mxPoint x="214" y="175" as="targetPoint" />
          </mxGeometry>
        </mxCell>
        <mxCell id="xNINmM9kppurYQLskDPg-21" value="&lt;font face=&quot;Times New Roman&quot;&gt;Recv&lt;/font&gt;" style="text;html=1;align=center;verticalAlign=middle;whiteSpace=wrap;rounded=0;" vertex="1" parent="1">
          <mxGeometry x="170" y="170" width="60" height="30" as="geometry" />
        </mxCell>
        <mxCell id="xNINmM9kppurYQLskDPg-23" value="" style="curved=1;endArrow=classic;html=1;rounded=0;exitX=0;exitY=1;exitDx=0;exitDy=0;entryX=0;entryY=0;entryDx=0;entryDy=0;" edge="1" parent="1" source="xNINmM9kppurYQLskDPg-6" target="xNINmM9kppurYQLskDPg-6">
          <mxGeometry width="50" height="50" relative="1" as="geometry">
            <mxPoint x="330" y="255" as="sourcePoint" />
            <mxPoint x="330" y="213" as="targetPoint" />
            <Array as="points">
              <mxPoint x="360" y="291" />
              <mxPoint x="350" y="250" />
            </Array>
          </mxGeometry>
        </mxCell>
        <mxCell id="xNINmM9kppurYQLskDPg-24" value="&lt;font face=&quot;Times New Roman&quot;&gt;Signal&lt;/font&gt;" style="text;html=1;align=center;verticalAlign=middle;whiteSpace=wrap;rounded=0;" vertex="1" parent="1">
          <mxGeometry x="350" y="290" width="60" height="30" as="geometry" />
        </mxCell>
        <mxCell id="xNINmM9kppurYQLskDPg-25" value="" style="endArrow=classic;html=1;rounded=0;exitX=0.267;exitY=0.953;exitDx=0;exitDy=0;entryX=1.002;entryY=0.61;entryDx=0;entryDy=0;entryPerimeter=0;exitPerimeter=0;" edge="1" parent="1" source="xNINmM9kppurYQLskDPg-4" target="xNINmM9kppurYQLskDPg-6">
          <mxGeometry width="50" height="50" relative="1" as="geometry">
            <mxPoint x="410" y="340" as="sourcePoint" />
            <mxPoint x="460" y="290" as="targetPoint" />
          </mxGeometry>
        </mxCell>
        <mxCell id="xNINmM9kppurYQLskDPg-26" value="" style="endArrow=classic;html=1;rounded=0;exitX=1;exitY=0;exitDx=0;exitDy=0;entryX=-0.018;entryY=0.6;entryDx=0;entryDy=0;entryPerimeter=0;" edge="1" parent="1" source="xNINmM9kppurYQLskDPg-6" target="xNINmM9kppurYQLskDPg-4">
          <mxGeometry width="50" height="50" relative="1" as="geometry">
            <mxPoint x="506" y="247" as="sourcePoint" />
            <mxPoint x="460" y="287" as="targetPoint" />
          </mxGeometry>
        </mxCell>
        <mxCell id="xNINmM9kppurYQLskDPg-27" value="&lt;font face=&quot;Times New Roman&quot;&gt;Signal&lt;/font&gt;" style="text;html=1;align=center;verticalAlign=middle;whiteSpace=wrap;rounded=0;" vertex="1" parent="1">
          <mxGeometry x="460" y="255" width="60" height="30" as="geometry" />
        </mxCell>
        <mxCell id="xNINmM9kppurYQLskDPg-28" value="&lt;font face=&quot;Times New Roman&quot;&gt;Recv&lt;/font&gt;" style="text;html=1;align=center;verticalAlign=middle;whiteSpace=wrap;rounded=0;" vertex="1" parent="1">
          <mxGeometry x="420" y="210" width="60" height="30" as="geometry" />
        </mxCell>
        <mxCell id="xNINmM9kppurYQLskDPg-29" value="" style="endArrow=classic;html=1;rounded=0;exitX=0;exitY=0.333;exitDx=0;exitDy=0;exitPerimeter=0;entryX=1;entryY=1;entryDx=0;entryDy=0;" edge="1" parent="1" source="xNINmM9kppurYQLskDPg-4" target="xNINmM9kppurYQLskDPg-5">
          <mxGeometry width="50" height="50" relative="1" as="geometry">
            <mxPoint x="460" y="170" as="sourcePoint" />
            <mxPoint x="510" y="120" as="targetPoint" />
          </mxGeometry>
        </mxCell>
        <mxCell id="xNINmM9kppurYQLskDPg-30" value="" style="endArrow=classic;html=1;rounded=0;exitX=1;exitY=0.5;exitDx=0;exitDy=0;entryX=0.208;entryY=0.041;entryDx=0;entryDy=0;entryPerimeter=0;" edge="1" parent="1" source="xNINmM9kppurYQLskDPg-5" target="xNINmM9kppurYQLskDPg-4">
          <mxGeometry width="50" height="50" relative="1" as="geometry">
            <mxPoint x="490" y="210" as="sourcePoint" />
            <mxPoint x="451" y="181" as="targetPoint" />
          </mxGeometry>
        </mxCell>
        <mxCell id="xNINmM9kppurYQLskDPg-31" value="" style="curved=1;endArrow=classic;html=1;rounded=0;exitX=0;exitY=1;exitDx=0;exitDy=0;entryX=0;entryY=0;entryDx=0;entryDy=0;" edge="1" parent="1" source="xNINmM9kppurYQLskDPg-5" target="xNINmM9kppurYQLskDPg-5">
          <mxGeometry width="50" height="50" relative="1" as="geometry">
            <mxPoint x="389" y="171" as="sourcePoint" />
            <mxPoint x="389" y="129" as="targetPoint" />
            <Array as="points">
              <mxPoint x="350" y="171" />
              <mxPoint x="350" y="140" />
            </Array>
          </mxGeometry>
        </mxCell>
        <mxCell id="xNINmM9kppurYQLskDPg-32" value="&lt;font face=&quot;Times New Roman&quot;&gt;Recv&lt;/font&gt;" style="text;html=1;align=center;verticalAlign=middle;whiteSpace=wrap;rounded=0;" vertex="1" parent="1">
          <mxGeometry x="330" y="110" width="60" height="30" as="geometry" />
        </mxCell>
        <mxCell id="xNINmM9kppurYQLskDPg-34" value="&lt;font face=&quot;Times New Roman&quot;&gt;Recv&lt;/font&gt;" style="text;html=1;align=center;verticalAlign=middle;whiteSpace=wrap;rounded=0;" vertex="1" parent="1">
          <mxGeometry x="420" y="180" width="60" height="30" as="geometry" />
        </mxCell>
        <mxCell id="xNINmM9kppurYQLskDPg-35" value="&lt;font face=&quot;Times New Roman&quot;&gt;Signal &amp;amp; queue empty&lt;/font&gt;" style="text;html=1;align=center;verticalAlign=middle;whiteSpace=wrap;rounded=0;" vertex="1" parent="1">
          <mxGeometry x="455" y="140" width="70" height="30" as="geometry" />
        </mxCell>
        <mxCell id="xNINmM9kppurYQLskDPg-38" value="&lt;font face=&quot;Times New Roman&quot;&gt;&lt;b&gt;Endpoint State Transfer&lt;/b&gt;&lt;/font&gt;" style="text;html=1;align=center;verticalAlign=middle;whiteSpace=wrap;rounded=0;" vertex="1" parent="1">
          <mxGeometry x="150" y="80" width="120" height="30" as="geometry" />
        </mxCell>
        <mxCell id="xNINmM9kppurYQLskDPg-39" value="&lt;font face=&quot;Times New Roman&quot;&gt;&lt;b&gt;Notification State Transfer&lt;/b&gt;&lt;/font&gt;" style="text;html=1;align=center;verticalAlign=middle;whiteSpace=wrap;rounded=0;" vertex="1" parent="1">
          <mxGeometry x="380" y="80" width="120" height="30" as="geometry" />
        </mxCell>
      </root>
    </mxGraphModel>
  </diagram>
</mxfile>
